REM DIRINDEX 1\2\5,1\2\6,1\3\7,1\3\8,1\4\9,1\4\10
REM DIRNAME folder01,folder02,folder03,folder04,folder05,folder06,folder07,folder08,folder09,folder10
TITLE ""
FILE "Track31.mp3" MP3
  TRACK 01 AUDIO
    TITLE "8:cjc079_0972"
    INDEX 01 00:00:00
  TRACK 02 AUDIO
    TITLE "8:cjc079_0973"
    INDEX 01 00:04:36
  TRACK 03 AUDIO
    TITLE "7:cjc079_0974"
    INDEX 01 00:06:02
  TRACK 04 AUDIO
    TITLE "0:"
    INDEX 01 00:07:17
  TRACK 05 AUDIO
    TITLE "7:cjc079_0975"
    INDEX 01 00:08:26
  TRACK 06 AUDIO
    TITLE "0:"
    INDEX 01 00:09:57
  TRACK 07 AUDIO
    TITLE "7:cjc079_0976"
    INDEX 01 00:10:70
  TRACK 08 AUDIO
    TITLE "0:"
    INDEX 01 00:12:20
  TRACK 09 AUDIO
    TITLE "7:cjc079_0977"
    INDEX 01 00:13:26
  TRACK 10 AUDIO
    TITLE "0:"
    INDEX 01 00:14:60
  TRACK 11 AUDIO
    TITLE "7:cjc079_0978"
    INDEX 01 00:15:72
  TRACK 12 AUDIO
    TITLE "0:"
    INDEX 01 00:17:23
  TRACK 13 AUDIO
    TITLE "7:cjc079_0979"
    INDEX 01 00:18:33
  TRACK 14 AUDIO
    TITLE "0:"
    INDEX 01 00:19:58
  TRACK 15 AUDIO
    TITLE "7:cjc079_0980"
    INDEX 01 00:20:61
  TRACK 16 AUDIO
    TITLE "0:"
    INDEX 01 00:22:13
  TRACK 17 AUDIO
    TITLE "7:cjc079_0981"
    INDEX 01 00:23:18
  TRACK 18 AUDIO
    TITLE "0:"
    INDEX 01 00:24:41
  TRACK 19 AUDIO
    TITLE "7:cjc079_0982"
    INDEX 01 00:25:48
  TRACK 20 AUDIO
    TITLE "0:"
    INDEX 01 00:26:69
  TRACK 21 AUDIO
    TITLE "7:cjc079_0983"
    INDEX 01 00:28:00
  TRACK 22 AUDIO
    TITLE "0:"
    INDEX 01 00:29:42
  TRACK 23 AUDIO
    TITLE "7:cjc079_0984"
    INDEX 01 00:30:44
  TRACK 24 AUDIO
    TITLE "0:"
    INDEX 01 00:31:59
  TRACK 25 AUDIO
    TITLE "7:cjc079_0985"
    INDEX 01 00:32:64
  TRACK 26 AUDIO
    TITLE "0:"
    INDEX 01 00:34:20
  TRACK 27 AUDIO
    TITLE "7:cjc079_0986"
    INDEX 01 00:35:25
  TRACK 28 AUDIO
    TITLE "0:"
    INDEX 01 00:36:52
  TRACK 29 AUDIO
    TITLE "7:cjc079_0987"
    INDEX 01 00:37:54
  TRACK 30 AUDIO
    TITLE "0:"
    INDEX 01 00:38:65
  TRACK 31 AUDIO
    TITLE "7:cjc079_0988"
    INDEX 01 00:39:66
  TRACK 32 AUDIO
    TITLE "0:"
    INDEX 01 00:41:14
  TRACK 33 AUDIO
    TITLE "7:cjc079_0989"
    INDEX 01 00:42:19
  TRACK 34 AUDIO
    TITLE "0:"
    INDEX 01 00:43:39
  TRACK 35 AUDIO
    TITLE "7:cjc079_0990"
    INDEX 01 00:44:46
  TRACK 36 AUDIO
    TITLE "0:"
    INDEX 01 00:46:11
  TRACK 37 AUDIO
    TITLE "7:cjc079_0991"
    INDEX 01 00:47:19
  TRACK 38 AUDIO
    TITLE "0:"
    INDEX 01 00:48:42
  TRACK 39 AUDIO
    TITLE "7:cjc079_0992"
    INDEX 01 00:49:49
  TRACK 40 AUDIO
    TITLE "0:"
    INDEX 01 00:51:07
  TRACK 41 AUDIO
    TITLE "7:cjc079_0993"
    INDEX 01 00:52:10
  TRACK 42 AUDIO
    TITLE "0:"
    INDEX 01 00:53:51
  TRACK 43 AUDIO
    TITLE "7:cjc079_0994"
    INDEX 01 00:54:54
  TRACK 44 AUDIO
    TITLE "0:"
    INDEX 01 00:55:73
  TRACK 45 AUDIO
    TITLE "7:cjc079_0995"
    INDEX 01 00:57:01
  TRACK 46 AUDIO
    TITLE "0:"
    INDEX 01 00:58:20
  TRACK 47 AUDIO
    TITLE "7:cjc079_0996"
    INDEX 01 00:59:26
  TRACK 48 AUDIO
    TITLE "0:"
    INDEX 01 01:00:47
  TRACK 49 AUDIO
    TITLE "7:cjc079_0997"
    INDEX 01 01:01:56
  TRACK 50 AUDIO
    TITLE "0:"
    INDEX 01 01:03:20
  TRACK 51 AUDIO
    TITLE "7:cjc079_0998"
    INDEX 01 01:04:29
  TRACK 52 AUDIO
    TITLE "0:"
    INDEX 01 01:05:64
  TRACK 53 AUDIO
    TITLE "7:cjc079_0999"
    INDEX 01 01:06:73
  TRACK 54 AUDIO
    TITLE "0:"
    INDEX 01 01:08:38
  TRACK 55 AUDIO
    TITLE "7:cjc079_1000"
    INDEX 01 01:09:42
  TRACK 56 AUDIO
    TITLE "0:"
    INDEX 01 01:10:65
  TRACK 57 AUDIO
    TITLE "7:cjc079_1001"
    INDEX 01 01:11:68
  TRACK 58 AUDIO
    TITLE "0:"
    INDEX 01 01:13:18
  TRACK 59 AUDIO
    TITLE "7:cjc079_1002"
    INDEX 01 01:14:23
  TRACK 60 AUDIO
    TITLE "0:"
    INDEX 01 01:15:42
  TRACK 61 AUDIO
    TITLE "7:cjc079_1003"
    INDEX 01 01:16:48
  TRACK 62 AUDIO
    TITLE "0:"
    INDEX 01 01:17:61
  TRACK 63 AUDIO
    TITLE "8:cjc079_1004"
    INDEX 01 01:18:68
  TRACK 64 AUDIO
    TITLE "7:cjc079_1005"
    INDEX 01 01:20:24
  TRACK 65 AUDIO
    TITLE "0:"
    INDEX 01 01:21:39
  TRACK 66 AUDIO
    TITLE "7:cjc079_1006"
    INDEX 01 01:22:44
  TRACK 67 AUDIO
    TITLE "0:"
    INDEX 01 01:24:06
  TRACK 68 AUDIO
    TITLE "7:cjc079_1007"
    INDEX 01 01:25:09
  TRACK 69 AUDIO
    TITLE "0:"
    INDEX 01 01:26:23
  TRACK 70 AUDIO
    TITLE "7:cjc079_1008"
    INDEX 01 01:27:34
  TRACK 71 AUDIO
    TITLE "0:"
    INDEX 01 01:28:53
  TRACK 72 AUDIO
    TITLE "7:cjc079_1009"
    INDEX 01 01:29:60
  TRACK 73 AUDIO
    TITLE "0:"
    INDEX 01 01:31:10
  TRACK 74 AUDIO
    TITLE "7:cjc079_1010"
    INDEX 01 01:32:13
  TRACK 75 AUDIO
    TITLE "0:"
    INDEX 01 01:33:34
  TRACK 76 AUDIO
    TITLE "7:cjc079_1011"
    INDEX 01 01:34:40
  TRACK 77 AUDIO
    TITLE "0:"
    INDEX 01 01:35:53
  TRACK 78 AUDIO
    TITLE "7:cjc079_1012"
    INDEX 01 01:36:60
  TRACK 79 AUDIO
    TITLE "0:"
    INDEX 01 01:38:14
  TRACK 80 AUDIO
    TITLE "7:cjc079_1013"
    INDEX 01 01:39:19
  TRACK 81 AUDIO
    TITLE "0:"
    INDEX 01 01:40:54
  TRACK 82 AUDIO
    TITLE "7:cjc079_1014"
    INDEX 01 01:41:59
  TRACK 83 AUDIO
    TITLE "0:"
    INDEX 01 01:42:73
  TRACK 84 AUDIO
    TITLE "7:cjc079_1015"
    INDEX 01 01:44:07
  TRACK 85 AUDIO
    TITLE "0:"
    INDEX 01 01:45:32
  TRACK 86 AUDIO
    TITLE "7:cjc079_1016"
    INDEX 01 01:46:41
  TRACK 87 AUDIO
    TITLE "0:"
    INDEX 01 01:47:50
  TRACK 88 AUDIO
    TITLE "7:cjc079_1017"
    INDEX 01 01:48:58
  TRACK 89 AUDIO
    TITLE "0:"
    INDEX 01 01:49:73
  TRACK 90 AUDIO
    TITLE "7:cjc079_1018"
    INDEX 01 01:51:03
  TRACK 91 AUDIO
    TITLE "0:"
    INDEX 01 01:52:14
  TRACK 92 AUDIO
    TITLE "7:cjc079_1019"
    INDEX 01 01:53:18
  TRACK 93 AUDIO
    TITLE "0:"
    INDEX 01 01:54:33
  TRACK 94 AUDIO
    TITLE "7:cjc079_1020"
    INDEX 01 01:55:40
  TRACK 95 AUDIO
    TITLE "0:"
    INDEX 01 01:56:65
  TRACK 96 AUDIO
    TITLE "7:cjc079_1021"
    INDEX 01 01:57:68
  TRACK 97 AUDIO
    TITLE "0:"
    INDEX 01 01:59:08
  TRACK 98 AUDIO
    TITLE "7:cjc079_1022"
    INDEX 01 02:00:12
  TRACK 99 AUDIO
    TITLE "0:"
    INDEX 01 02:01:25
  TRACK 100 AUDIO
    TITLE "7:cjc079_1023"
    INDEX 01 02:02:32
  TRACK 101 AUDIO
    TITLE "0:"
    INDEX 01 02:03:32
  TRACK 102 AUDIO
    TITLE "7:cjc079_1024"
    INDEX 01 02:04:41
  TRACK 103 AUDIO
    TITLE "0:"
    INDEX 01 02:05:56
  TRACK 104 AUDIO
    TITLE "7:cjc079_1025"
    INDEX 01 02:06:61
  TRACK 105 AUDIO
    TITLE "0:"
    INDEX 01 02:07:69
  TRACK 106 AUDIO
    TITLE "7:cjc079_1026"
    INDEX 01 02:09:01
  TRACK 107 AUDIO
    TITLE "0:"
    INDEX 01 02:10:06
  TRACK 108 AUDIO
    TITLE "7:cjc079_1027"
    INDEX 01 02:11:19
  TRACK 109 AUDIO
    TITLE "0:"
    INDEX 01 02:12:33
  TRACK 110 AUDIO
    TITLE "7:cjc079_1028"
    INDEX 01 02:13:42
  TRACK 111 AUDIO
    TITLE "0:"
    INDEX 01 02:14:55
  TRACK 112 AUDIO
    TITLE "7:cjc079_1029"
    INDEX 01 02:15:64
  TRACK 113 AUDIO
    TITLE "0:"
    INDEX 01 02:17:00
  TRACK 114 AUDIO
    TITLE "7:cjc079_1030"
    INDEX 01 02:18:18
  TRACK 115 AUDIO
    TITLE "0:"
    INDEX 01 02:19:44
  TRACK 116 AUDIO
    TITLE "7:cjc079_1031"
    INDEX 01 02:20:52
  TRACK 117 AUDIO
    TITLE "0:"
    INDEX 01 02:21:71
  TRACK 118 AUDIO
    TITLE "7:cjc079_1032"
    INDEX 01 02:23:07
  TRACK 119 AUDIO
    TITLE "0:"
    INDEX 01 02:24:10
  TRACK 120 AUDIO
    TITLE "7:cjc079_1033"
    INDEX 01 02:25:18
  TRACK 121 AUDIO
    TITLE "0:"
    INDEX 01 02:26:31
  TRACK 122 AUDIO
    TITLE "7:cjc079_1034"
    INDEX 01 02:27:34
  TRACK 123 AUDIO
    TITLE "0:"
    INDEX 01 02:28:69
  TRACK 124 AUDIO
    TITLE "8:cjc079_1035"
    INDEX 01 02:30:01
  TRACK 125 AUDIO
    TITLE "7:cjc079_1036"
    INDEX 01 02:31:51
  TRACK 126 AUDIO
    TITLE "0:"
    INDEX 01 02:33:01
  TRACK 127 AUDIO
    TITLE "7:cjc079_1037"
    INDEX 01 02:34:07
  TRACK 128 AUDIO
    TITLE "0:"
    INDEX 01 02:35:26
  TRACK 129 AUDIO
    TITLE "7:cjc079_1038"
    INDEX 01 02:36:29
  TRACK 130 AUDIO
    TITLE "0:"
    INDEX 01 02:37:52
  TRACK 131 AUDIO
    TITLE "7:cjc079_1039"
    INDEX 01 02:38:55
  TRACK 132 AUDIO
    TITLE "0:"
    INDEX 01 02:39:65
  TRACK 133 AUDIO
    TITLE "7:cjc079_1040"
    INDEX 01 02:40:70
  TRACK 134 AUDIO
    TITLE "0:"
    INDEX 01 02:42:16
  TRACK 135 AUDIO
    TITLE "7:cjc079_1041"
    INDEX 01 02:43:21
  TRACK 136 AUDIO
    TITLE "0:"
    INDEX 01 02:44:29
  TRACK 137 AUDIO
    TITLE "7:cjc079_1042"
    INDEX 01 02:45:40
  TRACK 138 AUDIO
    TITLE "0:"
    INDEX 01 02:46:69
  TRACK 139 AUDIO
    TITLE "7:cjc079_1043"
    INDEX 01 02:48:05
  TRACK 140 AUDIO
    TITLE "0:"
    INDEX 01 02:49:22
  TRACK 141 AUDIO
    TITLE "7:cjc079_1044"
    INDEX 01 02:50:29
  TRACK 142 AUDIO
    TITLE "0:"
    INDEX 01 02:51:54
  TRACK 143 AUDIO
    TITLE "7:cjc079_1045"
    INDEX 01 02:52:60
  TRACK 144 AUDIO
    TITLE "0:"
    INDEX 01 02:53:71
  TRACK 145 AUDIO
    TITLE "7:cjc079_1046"
    INDEX 01 02:55:03
  TRACK 146 AUDIO
    TITLE "0:"
    INDEX 01 02:56:22
  TRACK 147 AUDIO
    TITLE "7:cjc079_1047"
    INDEX 01 02:57:25
  TRACK 148 AUDIO
    TITLE "0:"
    INDEX 01 02:58:48
  TRACK 149 AUDIO
    TITLE "7:cjc079_1048"
    INDEX 01 02:59:52
  TRACK 150 AUDIO
    TITLE "0:"
    INDEX 01 03:01:11
  TRACK 151 AUDIO
    TITLE "7:cjc079_1049"
    INDEX 01 03:02:17
  TRACK 152 AUDIO
    TITLE "0:"
    INDEX 01 03:03:22
  TRACK 153 AUDIO
    TITLE "7:cjc079_1050"
    INDEX 01 03:04:29
  TRACK 154 AUDIO
    TITLE "0:"
    INDEX 01 03:05:62
  TRACK 155 AUDIO
    TITLE "7:cjc079_1051"
    INDEX 01 03:06:64
  TRACK 156 AUDIO
    TITLE "0:"
    INDEX 01 03:08:13
  TRACK 157 AUDIO
    TITLE "7:cjc079_1052"
    INDEX 01 03:09:19
  TRACK 158 AUDIO
    TITLE "0:"
    INDEX 01 03:10:42
  TRACK 159 AUDIO
    TITLE "7:cjc079_1053"
    INDEX 01 03:11:45
  TRACK 160 AUDIO
    TITLE "0:"
    INDEX 01 03:12:66
  TRACK 161 AUDIO
    TITLE "7:cjc079_1054"
    INDEX 01 03:13:71
  TRACK 162 AUDIO
    TITLE "0:"
    INDEX 01 03:15:15
  TRACK 163 AUDIO
    TITLE "7:cjc079_1055"
    INDEX 01 03:16:21
  TRACK 164 AUDIO
    TITLE "0:"
    INDEX 01 03:17:24
  TRACK 165 AUDIO
    TITLE "8:cjc079_1056"
    INDEX 01 03:18:31
  TRACK 166 AUDIO
    TITLE "7:cjc079_1057"
    INDEX 01 03:19:72
  TRACK 167 AUDIO
    TITLE "0:"
    INDEX 01 03:21:20
  TRACK 168 AUDIO
    TITLE "7:cjc079_1058"
    INDEX 01 03:22:25
  TRACK 169 AUDIO
    TITLE "0:"
    INDEX 01 03:23:44
  TRACK 170 AUDIO
    TITLE "7:cjc079_1059"
    INDEX 01 03:24:48
  TRACK 171 AUDIO
    TITLE "0:"
    INDEX 01 03:25:61
  TRACK 172 AUDIO
    TITLE "7:cjc079_1060"
    INDEX 01 03:26:70
  TRACK 173 AUDIO
    TITLE "0:"
    INDEX 01 03:28:08
  TRACK 174 AUDIO
    TITLE "7:cjc079_1061"
    INDEX 01 03:29:14
  TRACK 175 AUDIO
    TITLE "0:"
    INDEX 01 03:30:29
  TRACK 176 AUDIO
    TITLE "7:cjc079_1062"
    INDEX 01 03:31:36
  TRACK 177 AUDIO
    TITLE "0:"
    INDEX 01 03:32:45
  TRACK 178 AUDIO
    TITLE "7:cjc079_1063"
    INDEX 01 03:33:49
  TRACK 179 AUDIO
    TITLE "0:"
    INDEX 01 03:34:58
  TRACK 180 AUDIO
    TITLE "7:cjc079_1064"
    INDEX 01 03:35:65
  TRACK 181 AUDIO
    TITLE "0:"
    INDEX 01 03:37:01
  TRACK 182 AUDIO
    TITLE "7:cjc079_1065"
    INDEX 01 03:38:09
  TRACK 183 AUDIO
    TITLE "0:"
    INDEX 01 03:39:26
  TRACK 184 AUDIO
    TITLE "7:cjc079_1066"
    INDEX 01 03:40:33
  TRACK 185 AUDIO
    TITLE "0:"
    INDEX 01 03:41:52
  TRACK 186 AUDIO
    TITLE "7:cjc079_1067"
    INDEX 01 03:42:59
  TRACK 187 AUDIO
    TITLE "0:"
    INDEX 01 03:44:13
  TRACK 188 AUDIO
    TITLE "7:cjc079_1068"
    INDEX 01 03:45:22
  TRACK 189 AUDIO
    TITLE "0:"
    INDEX 01 03:46:32
  TRACK 190 AUDIO
    TITLE "7:cjc079_1069"
    INDEX 01 03:47:39
  TRACK 191 AUDIO
    TITLE "0:"
    INDEX 01 03:48:62
  TRACK 192 AUDIO
    TITLE "7:cjc079_1070"
    INDEX 01 03:49:73
  TRACK 193 AUDIO
    TITLE "0:"
    INDEX 01 03:51:02
  TRACK 194 AUDIO
    TITLE "7:cjc079_1071"
    INDEX 01 03:52:09
  TRACK 195 AUDIO
    TITLE "0:"
    INDEX 01 03:53:28
  TRACK 196 AUDIO
    TITLE "7:cjc079_1072"
    INDEX 01 03:54:33
  TRACK 197 AUDIO
    TITLE "0:"
    INDEX 01 03:55:31
  TRACK 198 AUDIO
    TITLE "7:cjc079_1073"
    INDEX 01 03:56:36
  TRACK 199 AUDIO
    TITLE "0:"
    INDEX 01 03:57:57
  TRACK 200 AUDIO
    TITLE "7:cjc079_1074"
    INDEX 01 03:58:62
  TRACK 201 AUDIO
    TITLE "0:"
    INDEX 01 04:00:02
  TRACK 202 AUDIO
    TITLE "7:cjc079_1075"
    INDEX 01 04:01:08
  TRACK 203 AUDIO
    TITLE "0:"
    INDEX 01 04:02:29
  TRACK 204 AUDIO
    TITLE "7:cjc079_1076"
    INDEX 01 04:03:34
  TRACK 205 AUDIO
    TITLE "0:"
    INDEX 01 04:04:55
